<?xml version="1.0" standalone="no"?>
<!DOCTYPE svg PUBLIC "-//W3C//DTD SVG 20010904//EN"
 "http://www.w3.org/TR/2001/REC-SVG-20010904/DTD/svg10.dtd">
<svg version="1.0" xmlns="http://www.w3.org/2000/svg"
 width="500.000000pt" height="500.000000pt" viewBox="0 0 500.000000 500.000000"
 preserveAspectRatio="xMidYMid meet">
<metadata>
Created by potrace 1.14, written by Peter Selinger 2001-2017
</metadata>
<g transform="translate(0.000000,500.000000) scale(0.100000,-0.100000)"
fill="#000000" stroke="none">
<path d="M2350 4084 c-276 -33 -533 -127 -755 -277 -123 -84 -323 -285 -404
-407 -162 -243 -248 -485 -273 -767 -32 -368 70 -745 285 -1050 80 -113 267
-300 382 -382 184 -129 431 -231 650 -267 148 -24 382 -24 530 0 219 36 466
138 650 267 115 82 302 269 382 382 291 414 368 940 208 1423 -42 126 -114
270 -196 394 -81 122 -281 323 -404 407 -179 120 -397 212 -603 254 -94 19
-370 33 -452 23z m178 -244 c40 -25 42 -25 42 0 0 16 7 20 30 20 30 0 30 0 30
-57 0 -32 -3 -109 -7 -170 l-6 -113 -29 0 c-28 0 -28 1 -28 63 -1 82 -16 147
-42 175 -12 12 -25 22 -29 22 -5 0 -10 -55 -11 -122 l-3 -123 -31 -3 -30 -3 3
143 c5 186 5 188 46 188 17 0 47 -9 65 -20z m-304 -27 c22 -75 66 -288 62
-299 -6 -14 -56 -20 -56 -6 0 4 -16 74 -35 156 -18 83 -32 154 -29 158 10 15
53 8 58 -9z m739 -44 c21 -5 40 -16 43 -24 4 -10 -44 -152 -101 -297 -6 -16
-23 -14 -63 7 -1 1 3 16 9 34 13 37 13 37 -22 46 -23 6 -28 3 -37 -25 -10 -27
-15 -30 -34 -25 -13 4 -26 10 -30 14 -9 8 64 204 84 228 20 24 70 53 93 53 11
0 37 -5 58 -11z m-923 -159 c38 -77 70 -144 70 -148 0 -5 -11 -14 -25 -20 -22
-10 -26 -9 -40 18 -18 34 -23 36 -50 16 -17 -12 -18 -17 -7 -40 17 -37 16 -41
-12 -54 -31 -14 -32 -12 -90 107 -64 131 -60 185 17 238 57 39 61 35 137 -117z
m-334 -139 c111 -50 132 -180 45 -274 l-38 -41 -117 110 c-64 60 -116 114
-116 120 0 19 77 83 107 90 16 3 33 7 38 9 22 7 42 4 81 -14z m1713 -15 c12
-21 9 -27 -35 -69 -42 -39 -46 -47 -35 -61 20 -24 38 -20 87 20 43 36 45 36
64 19 20 -18 20 -19 -12 -52 -18 -18 -51 -43 -75 -54 -24 -11 -43 -26 -43 -33
0 -6 -22 -34 -50 -61 l-49 -48 -20 24 -20 24 44 39 c46 39 55 62 33 84 -18 18
-25 15 -73 -29 -44 -41 -46 -41 -65 -24 -11 10 -19 22 -18 27 4 10 240 217
249 218 3 0 11 -11 18 -24z m-657 -193 c275 -96 478 -322 542 -601 23 -102 21
-278 -4 -378 -75 -301 -318 -540 -618 -608 -93 -21 -271 -21 -364 0 -283 65
-504 266 -601 549 -27 79 -31 107 -35 225 -4 150 13 253 62 364 83 187 256
355 448 433 108 44 170 53 333 50 137 -3 157 -6 237 -34z m-1317 -768 c19 -18
25 -35 25 -66 0 -24 5 -57 12 -75 14 -38 -3 -88 -35 -106 -23 -12 -191 -38
-249 -38 -35 0 -38 2 -38 29 0 28 3 30 48 36 197 28 207 30 210 49 4 21 6 21
-199 0 -63 -6 -66 -6 -72 17 -4 13 -2 28 2 32 5 5 62 16 127 24 122 15 142 22
129 43 -6 10 -28 11 -89 4 -45 -4 -103 -8 -131 -8 -47 -1 -50 0 -53 27 -2 15
0 27 5 28 4 0 51 6 103 13 148 21 177 20 205 -9z m2366 -58 c56 -30 89 -84 89
-150 0 -55 -10 -79 -53 -125 -78 -82 -218 -57 -273 49 -39 76 0 189 78 228 56
27 104 27 159 -2z m-2253 -332 c12 -26 11 -27 -106 -83 -89 -43 -118 -62 -120
-78 -6 -40 27 -35 143 23 112 56 115 57 129 38 9 -11 16 -23 16 -28 0 -12
-240 -127 -266 -127 -12 0 -36 12 -53 26 -33 28 -42 75 -21 115 10 18 230 137
256 138 6 1 16 -10 22 -24z m2074 -125 c76 -39 140 -74 142 -79 3 -4 -2 -18
-10 -30 l-15 -21 -129 66 c-161 83 -164 85 -156 112 4 12 13 22 19 22 7 0 74
-32 149 -70z m-1912 -145 c17 -9 30 -22 30 -30 0 -20 -30 -34 -61 -28 -32 6
-43 -8 -59 -76 -17 -73 -46 -101 -103 -101 -69 0 -112 54 -65 84 13 8 22 6 38
-9 30 -27 51 -10 71 56 23 80 29 90 63 105 40 17 51 17 86 -1z m1748 -11 c114
-47 144 -167 68 -267 -17 -23 -37 -42 -44 -42 -17 0 -242 204 -242 219 0 21
65 77 106 91 51 18 67 18 112 -1z m-1568 -165 c0 -12 -191 -259 -200 -259 -4
0 -15 9 -25 19 -17 19 -14 23 66 128 121 159 119 156 141 136 10 -9 18 -20 18
-24z m1324 -123 c41 -68 66 -120 66 -138 0 -40 -48 -88 -89 -88 -44 0 -80 38
-150 158 l-60 102 27 14 28 14 67 -114 c68 -115 86 -131 109 -94 7 11 -9 45
-56 124 -36 60 -66 112 -66 116 0 10 44 29 52 21 3 -3 36 -55 72 -115z m-1062
-5 c25 -9 26 -13 17 -41 -12 -34 -12 -34 -59 -20 -72 21 -130 -23 -130 -99 0
-34 6 -44 41 -75 35 -29 40 -39 35 -60 -9 -35 -37 -33 -81 5 -48 42 -65 78
-65 135 0 126 120 203 242 155z m733 -49 c5 -19 2 -25 -14 -29 -27 -7 -27 -19
9 -154 31 -119 30 -129 -15 -129 -17 0 -24 14 -44 93 -44 169 -39 157 -70 157
-21 0 -30 6 -35 22 -7 30 -2 34 79 56 74 21 79 20 90 -16z m-305 -47 c0 -14
-9 -29 -20 -35 -29 -15 -25 -38 15 -94 43 -61 47 -111 12 -152 -17 -20 -33
-27 -63 -28 -37 -1 -39 1 -39 29 0 23 5 31 22 33 47 7 48 28 4 95 -22 35 -41
73 -41 86 0 40 28 80 63 89 40 11 47 7 47 -23z"/>
<path d="M2868 3693 c-8 -10 -21 -33 -28 -51 -11 -29 -11 -35 1 -43 32 -20 47
-9 68 46 12 31 21 58 21 60 0 13 -49 3 -62 -12z"/>
<path d="M1917 3652 c-22 -24 -21 -37 3 -90 18 -40 20 -41 45 -30 32 14 31 23
-3 87 -27 49 -29 51 -45 33z"/>
<path d="M1593 3408 c-13 -6 -23 -14 -23 -17 0 -4 31 -38 70 -76 76 -75 86
-76 97 -11 13 82 -68 141 -144 104z"/>
<path d="M2424 2601 c-88 -54 -82 -201 10 -245 125 -59 250 64 191 187 -34 71
-133 99 -201 58z"/>
<path d="M3668 2370 c-58 -45 -57 -128 2 -170 108 -77 230 79 129 164 -38 32
-95 35 -131 6z"/>
<path d="M3361 1753 l-23 -19 68 -62 c38 -34 74 -62 80 -62 32 0 32 89 1 125
-30 36 -93 44 -126 18z"/>
</g>
</svg>
